<svg width="264" height="56" viewBox="0 0 264 56" fill="none" xmlns="http://www.w3.org/2000/svg">
<path d="M25.8076 2.8H34.9356L21.3836 24.332V42H13.6556V24.332L0.103599 2.8H9.2316L17.5196 15.932L25.8076 2.8ZM35.5411 31.752V14H43.2691V29.624C43.2691 30.6133 43.5024 31.5093 43.9691 32.312C44.4544 33.096 45.0984 33.7213 45.9011 34.188C46.7038 34.6547 47.5811 34.888 48.5331 34.888C49.5038 34.888 50.3904 34.6547 51.1931 34.188C51.9958 33.7213 52.6304 33.096 53.0971 32.312C53.5638 31.5093 53.7971 30.6133 53.7971 29.624V14H61.5251L61.5531 42H53.8251L53.7971 39.872C52.8638 40.768 51.7624 41.468 50.4931 41.972C49.2424 42.476 47.9171 42.728 46.5171 42.728C44.5011 42.728 42.6624 42.2333 41.0011 41.244C39.3398 40.2547 38.0144 38.9387 37.0251 37.296C36.0358 35.6347 35.5411 33.7867 35.5411 31.752ZM92.6554 42H83.7514L77.8154 31.78L74.3994 35.84V42H66.6714V-3.33786e-06H74.3994V23.828L82.6314 14H92.7114L83.1074 25.508L92.6554 42ZM95.8067 14H103.535V42H95.8067V14ZM99.7267 10.78C98.6067 10.78 97.6641 10.4067 96.8987 9.66C96.1334 8.91333 95.7507 7.98933 95.7507 6.888C95.7507 5.78666 96.1334 4.86266 96.8987 4.116C97.6641 3.36933 98.5974 2.996 99.6987 2.996C100.8 2.996 101.724 3.36933 102.471 4.116C103.236 4.86266 103.619 5.78666 103.619 6.888C103.619 7.98933 103.245 8.91333 102.499 9.66C101.771 10.4067 100.847 10.78 99.7267 10.78ZM109.439 42L109.411 14H117.139L117.167 16.072C118.1 15.176 119.192 14.476 120.443 13.972C121.712 13.468 123.047 13.216 124.447 13.216C125.473 13.216 126.5 13.3653 127.527 13.664L124.475 21.476C123.803 21.196 123.121 21.056 122.431 21.056C121.46 21.056 120.573 21.2893 119.771 21.756C118.968 22.2227 118.333 22.8573 117.867 23.66C117.4 24.444 117.167 25.3307 117.167 26.32V42H109.439ZM130.07 42V2.8H138.414L153.702 28.028V2.8H161.43V42H153.086L137.798 16.772V42H130.07ZM187.353 14H195.081V42.392C195.081 44.464 194.661 46.3307 193.821 47.992C192.981 49.672 191.833 51.1093 190.377 52.304C188.94 53.4987 187.278 54.4133 185.393 55.048C183.526 55.6827 181.548 56 179.457 56C177.478 56 175.584 55.608 173.773 54.824C171.962 54.0587 170.357 52.9947 168.957 51.632C167.557 50.2693 166.465 48.7013 165.681 46.928L172.737 43.708C173.129 44.6413 173.661 45.444 174.333 46.116C175.024 46.788 175.808 47.3013 176.685 47.656C177.581 48.0293 178.505 48.216 179.457 48.216C180.484 48.216 181.464 48.0947 182.397 47.852C183.349 47.6093 184.198 47.2453 184.945 46.76C185.692 46.2747 186.28 45.668 186.709 44.94C187.138 44.212 187.353 43.3627 187.353 42.392V39.144C186.494 40.208 185.449 41.076 184.217 41.748C183.004 42.4013 181.594 42.728 179.989 42.728C177.973 42.728 176.078 42.3453 174.305 41.58C172.55 40.8147 171.001 39.76 169.657 38.416C168.313 37.0533 167.258 35.4853 166.493 33.712C165.728 31.9387 165.345 30.0347 165.345 28C165.345 25.9653 165.728 24.0613 166.493 22.288C167.258 20.5147 168.313 18.956 169.657 17.612C171.001 16.2493 172.55 15.1853 174.305 14.42C176.078 13.6547 177.973 13.272 179.989 13.272C181.594 13.272 183.004 13.608 184.217 14.28C185.449 14.9333 186.494 15.792 187.353 16.856V14ZM180.101 35.308C181.37 35.308 182.518 34.9813 183.545 34.328C184.572 33.656 185.374 32.7693 185.953 31.668C186.55 30.5667 186.849 29.344 186.849 28C186.849 26.656 186.55 25.4333 185.953 24.332C185.374 23.212 184.572 22.3253 183.545 21.672C182.518 21.0187 181.37 20.692 180.101 20.692C178.85 20.692 177.702 21.0187 176.657 21.672C175.63 22.3253 174.809 23.212 174.193 24.332C173.577 25.4333 173.269 26.656 173.269 28C173.269 29.344 173.577 30.576 174.193 31.696C174.809 32.7973 175.63 33.6747 176.657 34.328C177.702 34.9813 178.85 35.308 180.101 35.308ZM221.033 14H228.761V42H221.005L220.641 39.088C219.913 40.1707 218.979 41.048 217.841 41.72C216.702 42.392 215.367 42.728 213.837 42.728C211.746 42.728 209.795 42.336 207.985 41.552C206.174 40.768 204.578 39.6853 203.197 38.304C201.815 36.9227 200.733 35.3267 199.949 33.516C199.183 31.6867 198.801 29.7267 198.801 27.636C198.801 25.6387 199.165 23.772 199.893 22.036C200.621 20.3 201.647 18.7693 202.973 17.444C204.298 16.1187 205.819 15.0827 207.537 14.336C209.273 13.5893 211.139 13.216 213.137 13.216C214.854 13.216 216.394 13.58 217.757 14.308C219.138 15.036 220.342 15.96 221.369 17.08L221.033 14ZM213.641 35.308C214.91 35.308 216.058 34.9813 217.085 34.328C218.111 33.6747 218.923 32.7973 219.521 31.696C220.118 30.576 220.417 29.344 220.417 28C220.417 26.6373 220.118 25.4053 219.521 24.304C218.923 23.2027 218.111 22.3253 217.085 21.672C216.058 21.0187 214.91 20.692 213.641 20.692C212.353 20.692 211.186 21.0187 210.141 21.672C209.095 22.3253 208.265 23.212 207.649 24.332C207.033 25.4333 206.725 26.656 206.725 28C206.725 29.344 207.033 30.576 207.649 31.696C208.283 32.7973 209.123 33.6747 210.169 34.328C211.214 34.9813 212.371 35.308 213.641 35.308ZM249.114 13.216C251.839 13.216 254.312 13.8787 256.534 15.204C258.774 16.5293 260.556 18.312 261.882 20.552C263.207 22.7733 263.87 25.2373 263.87 27.944C263.87 29.9787 263.487 31.892 262.722 33.684C261.956 35.476 260.892 37.0533 259.53 38.416C258.186 39.76 256.618 40.8147 254.826 41.58C253.052 42.3453 251.148 42.728 249.114 42.728C247.508 42.728 246.08 42.3733 244.83 41.664C243.579 40.9547 242.506 40.0587 241.61 38.976V42H233.882V-3.33786e-06H241.61V16.968C242.506 15.8667 243.579 14.9707 244.83 14.28C246.08 13.5707 247.508 13.216 249.114 13.216ZM249.002 35.252C250.29 35.252 251.456 34.9253 252.502 34.272C253.566 33.6187 254.406 32.7413 255.022 31.64C255.638 30.52 255.946 29.288 255.946 27.944C255.946 26.6 255.628 25.3773 254.994 24.276C254.378 23.1747 253.538 22.2973 252.474 21.644C251.428 20.972 250.271 20.636 249.002 20.636C247.732 20.636 246.584 20.972 245.558 21.644C244.55 22.2973 243.747 23.184 243.15 24.304C242.571 25.4053 242.282 26.6187 242.282 27.944C242.282 29.3067 242.571 30.5387 243.15 31.64C243.747 32.7413 244.55 33.6187 245.558 34.272C246.584 34.9253 247.732 35.252 249.002 35.252Z" fill="#EFEEEC"/>
</svg>
